<!--?xml version="1.0" encoding="utf-8"?-->
<!-- Generator: Adobe Illustrator 18.1.1, SVG Export Plug-In . SVG Version: 6.00 Build 0)  -->

<svg version="1.1" id="_x32_" xmlns="http://www.w3.org/2000/svg" xmlns:xlink="http://www.w3.org/1999/xlink" x="0px" y="0px" viewBox="0 0 512 512" style="width: 128px; height: 128px; opacity: 1;" xml:space="preserve">
<style type="text/css">
	.st0{fill:#4B4B4B;}
</style>
<g>
	<path class="st0" d="M507.321,145.251l-18.08-18.071c-6.236-6.244-16.368-6.244-22.604,0.008l-90.906,90.905l-81.816-81.824
		l90.898-90.897c6.244-6.244,6.253-16.376,0.008-22.612l-18.071-18.08c-6.244-6.244-16.369-6.236-22.614,0.008L253.23,95.593
		l-47.144-47.144L192.588,34.95l-36.574,36.566l13.499,13.498l-1.166,1.175l-48.402,48.402
		c-46.242,46.242-58.5,113.567-36.872,171.042l-24.82,24.82c-11.919,11.919-11.919,31.248,0,43.174l80.12,80.112
		c11.926,11.927,31.256,11.918,43.174,0l24.82-24.821c57.475,21.645,124.809,9.388,171.051-36.863l48.393-48.402h0.009l1.166-1.166
		l13.498,13.499l36.574-36.566l-13.507-13.506l-47.144-47.144l90.906-90.906C513.557,161.62,513.565,151.504,507.321,145.251z" style="fill: rgb(45, 177, 154);"></path>
	<polygon class="st0" points="0,463.036 48.956,512 105.479,455.477 56.524,406.513 	" style="fill: rgb(45, 177, 154);"></polygon>
</g>
</svg>
