<?xml version="1.0" encoding="UTF-8"?><svg id="_2" xmlns="http://www.w3.org/2000/svg" viewBox="0 0 256 179.22"><defs><style>.cls-1{fill:#4b4b4b;}</style></defs><path class="cls-1" d="M255.79,87.72c-.2-.88-.4-1.37-.59-1.82-.36-.85-.71-1.49-1.12-2.22-1.5-2.61-3.92-6.15-7.22-10.61-4.94-6.64-11.73-15.04-19.44-23.34-7.71-8.3-16.26-16.47-24.96-22.64-12.31-8.71-24.28-15.49-36.55-20.09C153.66,2.39,141.12,0,128,0c-13.12,0-25.66,2.38-37.92,6.99-12.26,4.6-24.23,11.38-36.54,20.09-12.95,9.2-25.7,22.86-35.55,34.73-4.91,5.93-9.05,11.4-12.04,15.66-1.5,2.14-2.7,3.96-3.63,5.51-.47,.78-.86,1.48-1.23,2.27-.19,.4-.37,.81-.57,1.39-.1,.29-.21,.63-.3,1.08-.09,.46-.21,1.02-.21,1.89,0,.87,.11,1.44,.21,1.89,.2,.88,.4,1.36,.58,1.82,.36,.85,.71,1.49,1.12,2.21,1.5,2.61,3.92,6.16,7.22,10.61,4.93,6.64,11.73,15.05,19.44,23.35,7.71,8.3,16.26,16.47,24.96,22.64,12.31,8.71,24.28,15.48,36.54,20.09,12.25,4.6,24.79,7,37.92,6.99,13.12,0,25.66-2.39,37.92-6.99,12.26-4.61,24.23-11.38,36.55-20.09,12.95-9.2,25.7-22.86,35.55-34.73,4.91-5.93,9.05-11.4,12.04-15.66,1.5-2.14,2.7-3.96,3.63-5.51,.47-.78,.86-1.48,1.23-2.26,.19-.4,.37-.81,.57-1.39,.1-.29,.21-.63,.3-1.08,.1-.46,.21-1.02,.21-1.89,0-.87-.11-1.44-.21-1.89Zm-35.48,25.49c-8.35,9.53-18.29,19.41-27.2,25.7-11.51,8.14-22.28,14.17-32.88,18.15-10.61,3.97-21.05,5.95-32.23,5.96-11.17,0-21.61-1.98-32.23-5.96-10.6-3.98-21.37-10-32.88-18.15-10.87-7.66-23.18-20.62-32.43-31.83-4.64-5.6-8.57-10.79-11.25-14.63-.76-1.08-1.38-2.01-1.93-2.84,3.18-4.88,10.09-14.13,18.41-23.6,8.35-9.54,18.29-19.41,27.2-25.7,11.51-8.14,22.28-14.16,32.88-18.14,10.61-3.97,21.05-5.95,32.23-5.96,11.17,0,21.61,1.98,32.23,5.96,10.6,3.98,21.37,10,32.88,18.15,10.87,7.66,23.18,20.63,32.43,31.83,4.64,5.61,8.57,10.79,11.25,14.63,.76,1.08,1.38,2.01,1.93,2.84-3.18,4.88-10.09,14.13-18.41,23.6Z"/><path class="cls-1" d="M128,32.46c-31.57,0-57.15,25.59-57.15,57.15s25.58,57.15,57.15,57.15,57.15-25.58,57.15-57.15-25.58-57.15-57.15-57.15Zm0,83.69c-14.65,0-26.53-11.88-26.53-26.53s11.88-26.53,26.53-26.53c2.88,0,5.65,.47,8.25,1.32l-3.72,11.38c-.95,2.9-.3,6.08,1.7,8.38,2.01,2.29,5.08,3.35,8.08,2.8l11.76-2.17c.29,1.56,.46,3.17,.46,4.81,0,14.65-11.88,26.53-26.53,26.53Z"/></svg>