<?xml version="1.0" encoding="UTF-8"?>
<!DOCTYPE svg PUBLIC "-//W3C//DTD SVG 1.1//EN" "http://www.w3.org/Graphics/SVG/1.1/DTD/svg11.dtd">
<svg xmlns="http://www.w3.org/2000/svg" version="1.1" width="512px" height="512px" style="shape-rendering:geometricPrecision; text-rendering:geometricPrecision; image-rendering:optimizeQuality; fill-rule:evenodd; clip-rule:evenodd" xmlns:xlink="http://www.w3.org/1999/xlink">
<g><path style="opacity:0.988" fill="#fefffe" d="M 346.5,-0.5 C 347.5,-0.5 348.5,-0.5 349.5,-0.5C 372.465,22.9653 395.632,46.2986 419,69.5C 419.667,70.5 419.667,71.5 419,72.5C 357.986,133.347 297.153,194.347 236.5,255.5C 297.153,316.653 357.986,377.653 419,438.5C 419.667,439.5 419.667,440.5 419,441.5C 395.632,464.701 372.465,488.035 349.5,511.5C 348.5,511.5 347.5,511.5 346.5,511.5C 261.521,426.188 176.521,340.854 91.5,255.5C 176.521,170.146 261.521,84.8124 346.5,-0.5 Z"/></g>
</svg>
