<?xml version="1.0" encoding="UTF-8"?>
<!DOCTYPE svg PUBLIC "-//W3C//DTD SVG 1.1//EN" "http://www.w3.org/Graphics/SVG/1.1/DTD/svg11.dtd">
<svg xmlns="http://www.w3.org/2000/svg" version="1.1" width="768px" height="768px" style="shape-rendering:geometricPrecision; text-rendering:geometricPrecision; image-rendering:optimizeQuality; fill-rule:evenodd; clip-rule:evenodd" xmlns:xlink="http://www.w3.org/1999/xlink">
<g><path style="opacity:0.99" fill="#ff0100" d="M 133.5,102.5 C 301.167,102.333 468.834,102.5 636.5,103C 651.925,106.76 661.759,116.26 666,131.5C 666.667,299.833 666.667,468.167 666,636.5C 661.829,653.671 650.996,663.504 633.5,666C 467.833,666.667 302.167,666.667 136.5,666C 119.451,663.619 108.618,654.119 104,637.5C 103.333,468.833 103.333,300.167 104,131.5C 108.116,115.883 117.949,106.217 133.5,102.5 Z"/></g>
<g><path style="opacity:1" fill="#fffefe" d="M 340.5,157.5 C 369.5,157.5 398.5,157.5 427.5,157.5C 427.5,176.833 427.5,196.167 427.5,215.5C 477.167,215.5 526.833,215.5 576.5,215.5C 576.5,239.167 576.5,262.833 576.5,286.5C 526.833,286.5 477.167,286.5 427.5,286.5C 427.5,301.5 427.5,316.5 427.5,331.5C 482.833,331.5 538.167,331.5 593.5,331.5C 593.5,355.167 593.5,378.833 593.5,402.5C 552.495,402.167 511.495,402.5 470.5,403.5C 470.624,404.107 470.957,404.44 471.5,404.5C 505.413,436.942 542.08,465.775 581.5,491C 593.704,498.264 605.704,505.764 617.5,513.5C 603.413,538.005 589.58,562.672 576,587.5C 575.439,588.022 574.772,588.355 574,588.5C 519.627,553.154 470.96,510.821 428,461.5C 427.5,508.165 427.333,554.832 427.5,601.5C 398.5,601.5 369.5,601.5 340.5,601.5C 340.833,554.829 340.5,508.162 339.5,461.5C 338.893,461.624 338.56,461.957 338.5,462.5C 296.463,511.056 248.796,552.889 195.5,588C 194.216,588.684 193.049,588.517 192,587.5C 177.997,562.48 164.331,537.48 151,512.5C 203.72,482.219 252.22,446.219 296.5,404.5C 297.043,404.44 297.376,404.107 297.5,403.5C 256.505,402.5 215.505,402.167 174.5,402.5C 174.5,378.833 174.5,355.167 174.5,331.5C 229.833,331.5 285.167,331.5 340.5,331.5C 340.5,316.5 340.5,301.5 340.5,286.5C 290.833,286.5 241.167,286.5 191.5,286.5C 191.5,262.833 191.5,239.167 191.5,215.5C 241.167,215.5 290.833,215.5 340.5,215.5C 340.5,196.167 340.5,176.833 340.5,157.5 Z"/></g>
<g><path style="opacity:1" fill="#ffa09e" d="M 340.5,157.5 C 340.5,176.833 340.5,196.167 340.5,215.5C 290.833,215.5 241.167,215.5 191.5,215.5C 191.5,239.167 191.5,262.833 191.5,286.5C 190.502,262.672 190.169,238.672 190.5,214.5C 240.167,214.5 289.833,214.5 339.5,214.5C 339.17,195.326 339.503,176.326 340.5,157.5 Z"/></g>
<g><path style="opacity:1" fill="#ffa09e" d="M 427.5,157.5 C 428.497,176.326 428.83,195.326 428.5,214.5C 478.167,214.5 527.833,214.5 577.5,214.5C 577.831,238.672 577.498,262.672 576.5,286.5C 576.5,262.833 576.5,239.167 576.5,215.5C 526.833,215.5 477.167,215.5 427.5,215.5C 427.5,196.167 427.5,176.833 427.5,157.5 Z"/></g>
<g><path style="opacity:1" fill="#ffbdbd" d="M 174.5,402.5 C 215.505,402.167 256.505,402.5 297.5,403.5C 297.376,404.107 297.043,404.44 296.5,404.5C 255.833,403.833 215.167,403.167 174.5,402.5 Z"/></g>
<g><path style="opacity:1" fill="#ffbdbd" d="M 593.5,402.5 C 552.833,403.167 512.167,403.833 471.5,404.5C 470.957,404.44 470.624,404.107 470.5,403.5C 511.495,402.5 552.495,402.167 593.5,402.5 Z"/></g>
<g><path style="opacity:1" fill="#ff6262" d="M 338.5,462.5 C 338.56,461.957 338.893,461.624 339.5,461.5C 340.5,508.162 340.833,554.829 340.5,601.5C 339.833,555.167 339.167,508.833 338.5,462.5 Z"/></g>
</svg>
