<svg xmlns="http://www.w3.org/2000/svg" width="18.35" height="24" viewBox="55.558 0 18.35 24"><path d="M71.67 9.604v-2.5c0-1.956-.78-3.743-2.033-5.023A6.842 6.842 0 0 0 64.733 0c-1.91 0-3.655.798-4.905 2.08a7.178 7.178 0 0 0-2.032 5.023v2.501h-2.238v9.85c0 2.511 1.988 4.546 4.44 4.546h9.47c2.452 0 4.44-2.035 4.44-4.546v-9.85h-2.239Zm-10.507-2.5c0-.51.1-.987.28-1.423a3.658 3.658 0 0 1 1.294-1.61 3.483 3.483 0 0 1 1.996-.623c.497 0 .963.102 1.389.286a3.612 3.612 0 0 1 1.572 1.327c.385.585.607 1.279.608 2.042v2.501h-7.139v-2.5Zm3.57 11.289c-1.267 0-2.294-1.052-2.294-2.35 0-1.297 1.027-2.348 2.294-2.348 1.266 0 2.294 1.051 2.294 2.349 0 1.297-1.028 2.349-2.294 2.349Z" fill="#4b4b4b" fill-rule="evenodd" data-name="パス 490"/></svg>