<svg xmlns="http://www.w3.org/2000/svg" width="16.326" height="24.387" viewBox="359 73.807 16.326 24.387"><g data-name="ユーザーアイコン"><path d="M375.255 92.53c-.283-1.69-1.715-4.025-2.742-5.118-.277-.296-.76-.173-.929-.068a8.395 8.395 0 0 1-8.842 0c-.17-.105-.651-.228-.929.068-1.026 1.093-2.459 3.429-2.741 5.118-.693 4.16 3.751 5.664 8.091 5.664s8.785-1.504 8.092-5.664Z" fill="#fafafa" fill-rule="evenodd" data-name="パス 489"/><path d="M367.163 86.443a6.318 6.318 0 1 0 0-12.636 6.318 6.318 0 0 0 0 12.636Z" fill="#fafafa" fill-rule="evenodd" data-name="パス 488"/></g></svg>