<svg xmlns="http://www.w3.org/2000/svg" width="16.326" height="24.387" viewBox="303.725 445.807 16.326 24.387"><g data-name="ユーザーアイコン"><path d="M319.98 464.53c-.283-1.69-1.716-4.025-2.742-5.118-.278-.296-.76-.173-.93-.068a8.395 8.395 0 0 1-8.841 0c-.17-.105-.652-.228-.93.068-1.026 1.093-2.458 3.429-2.74 5.118-.694 4.16 3.75 5.664 8.09 5.664 4.341 0 8.785-1.503 8.092-5.664Z" fill="#4b4b4b" fill-rule="evenodd" data-name="パス 489"/><path d="M311.888 458.443a6.318 6.318 0 1 0 0-12.636 6.318 6.318 0 0 0 0 12.636Z" fill="#4b4b4b" fill-rule="evenodd" data-name="パス 488"/></g></svg>